<svg version="1.0" xmlns="http://www.w3.org/2000/svg" viewBox="0 0 293 293" width="512" height="512" fill="#f0f0f0" style="background-color: #000000"><path d="M97.35 30.25c-.4 1.25-.65 2.8-.5 3.4.4 2.15-1.9 2.55-4.45.85-1.6-1-2.35-2.25-2-3.15.4-1.05.05-1.4-1.15-1.15-2.95.55-3.05 27.25-.15 37.9 2 7.4 7.25 13.9 11.25 13.9 1.2 0 14.5 8.2 16.05 9.9 1.65 1.85 1.55 2.35-2.8 11.4-6.05 12.7-8.5 20.35-9.75 30.1-.55 4.45-1.5 9.45-2.1 11.1-2.1 5.8-2.1 13.95.05 18.15 2.05 4.05 3.05 8.65 3.7 17.05.2 2.8 1.25 6.85 2.3 8.95 1.8 3.65 3.2 15.1 4.85 39.85.25 3.85 1.55 10.6 2.85 15 2.85 9.65 4 22.8 2.4 27.4-1.65 4.65-.4 5.25 7.6 3.55 12.6-2.6 16.15-2.15 16.95 2.3 1.45 8.4 2.5 10.15 6.55 11.35 6.35 1.95 9.6-1.15 7.95-7.6-.4-1.65-1.05-4.7-1.4-6.75-.65-3.9-4.45-6.95-7.55-6.05-1.3.4-1.3.3-.05-.55 1.3-.9 1.3-1.1 0-1.6-.8-.3-1.5-1.75-1.6-3.2-.1-1.45-.7-2.95-1.4-3.35-.65-.45-.9-1.3-.5-1.95.95-1.55-2.25-5.05-4.6-5.05-1 0-1.85-.4-1.85-.9 0-1.05 2.45-2.1 4.95-2.1 2 0 3.5-2.6 2.05-3.5-.55-.35-.55-1.5-.05-2.85.5-1.3.45-2.95-.1-3.95-.5-.95-.6-1.7-.15-1.7.45 0 .8-1.15.8-2.5 0-1.6-.45-2.35-1.25-2.05-.75.3-1.25-.3-1.25-1.5s.7-1.95 1.75-1.95c1.4 0 1.7-.8 1.6-4-.1-2.2.25-4.25.75-4.55.5-.3.9 2.25.95 5.75 0 3.45.3 9.4.6 13.2.45 5.25.25 7.2-.8 8-1.55 1.25-2.2 6.6-.8 6.6 1.55 0 4.3 6.2 3.05 6.95-.75.45-.7 1.25.25 2.55 3.1 4.2 4.15-41.55 1.2-52.65-1.6-6.05-2.1-29-1-43.35.45-5.8.05-11.15-1.35-19.5-1.1-6.35-1.65-12.2-1.2-13 .45-.85 1.3-4.85 1.95-8.95.6-4.15 1.8-8.2 2.6-9.1.8-.9 1.45-1.95 1.45-2.35 0-.4 1.8-3.75 3.95-7.45C164.7 95.8 166.2 90.2 163.9 85c-2.2-4.9-1.75-7.6 1.4-8.55 8-2.4 18.45-19.9 14.1-23.55-3.55-2.95-11.95-6-14.9-5.45-3.6.65-13.5 11.25-13.5 14.45 0 1.1-1.25 4.05-2.75 6.55-3.3 5.5-5.95 5.9-10.85 1.6-2.65-2.35-4.05-2.85-6.25-2.45-2.15.45-3.05.15-3.5-1.15-.6-1.45-.25-1.6 2.35-1.1 2.8.55 2.95.45 1.95-1.45-1.4-2.65-17.15-17.85-18.5-17.9-3-.05-7.8-6.9-6.65-9.45.65-1.4 1.75-2.55 2.45-2.55 8.3.1 35.1 3.25 60.55 7.05 4.05.6 9 1.3 11 1.55 2.05.25 5.3.85 7.2 1.35 1.95.5 6.55 1.2 10.35 1.6 6.9.7 14.3 3.75 15.75 6.5.4.8 1.75 3.6 2.95 6.3 2.8 6.05 4.55 6.8 7.7 3.15 3.5-4.1.8-15.7-3.3-14.1-.8.3-4.25-.35-7.7-1.4-3.45-1.05-7.8-2.15-9.75-2.4-1.9-.25-5.05-.95-7-1.55-4.35-1.3-4.9-1.3-3 .05 1.2.9 1.1.95-.5.4-1.1-.4-3.55-.9-5.5-1.15-1.9-.25-4.9-.9-6.65-1.45-1.7-.55-3.5-.9-4-.8-.45.15-1.5-.05-2.35-.35-.8-.35-3.95-.85-7-1.15-3-.3-12-1.5-20-2.6-7.95-1.15-19.7-2.5-26-3-6.35-.5-13.45-1.6-15.9-2.45-5.9-2.1-7.85-1.95-8.75.7zm3.3 11.05c1.15 1.75 4.2 6.6 6.65 10.8 2.95 4.9 7.2 10.05 12.1 14.55 9.35 8.6 9.45 9.25 1.35 8.1-3.45-.5-7.5-1.05-9.05-1.2-1.5-.1-3.3-.75-3.95-1.4-.65-.65-2.3-1.15-3.7-1.15-4.1-.05-7.05-1.15-7.05-2.6 0-.8.45-1.4 1-1.4 1.4 0 1.25-2.95-.4-9.35-1.25-4.8-1.95-12.25-1.7-17.9.15-2.7 2.4-2 4.75 1.55zM95 52.75C95 54 94.55 55 94 55s-1-1.7-1-3.75c.05-2.8.3-3.35 1-2.25.55.8 1 2.5 1 3.75zm128-.25c1.45 2.75.65 4.55-1.2 2.7-1.4-1.4-2.1-5.2-.95-5.2.45 0 1.4 1.1 2.15 2.5zm-52.05 10.25c.05.7-.55 1.25-1.25 1.25-1.85 0-3.7-2.1-3.7-4.25 0-2.25 4.9.7 4.95 3zm-16.95 10c0 .45 1 1.2 2.15 1.75 5.55 2.55 4.95 6.4-.65 4.05-2.05-.85-4.1-1.3-4.6-1-1.2.75-2.25-2.15-1.55-4.05.6-1.5 4.65-2.15 4.65-.75zm-45 2.5c-.05 3.15-1.85 4.3-3.45 2.25-2.1-2.8-1.9-3.5.95-3.5 1.4 0 2.5.55 2.5 1.25zm30.75 2.65c3.35.1 5.05.8 8 3.5 2.1 1.85 5.35 4.1 7.25 4.95l3.5 1.5-3.5-.4-3.5-.4 3.25 1.1c4.65 1.6 4.5 4.8-.25 4.95-9.25.35-10.8.2-10-1.1.35-.55-.5-1-2-1-1.85 0-2.4.35-1.8 1.25.4.7.8 1.7.8 2.25 0 .6 3.05.85 7.9.65 8.85-.45 9.95 1.2 1.6 2.35-3.15.45-5 1.2-5 2 0 .75-.55 1.55-1.25 1.8-.7.2-.2.25 1.15 0 3.15-.55 8.5.7 7.45 1.7-4.1 4-17.9 2.9-17.05-1.3.1-.6-.45-1.15-1.3-1.2-3-.15-7-2.85-7-4.7 0-1.05-.45-1.65-1-1.3-1.75 1.1-1.1-.1 1.15-2.1 2.15-1.9 2.15-1.9 1.6.35-.3 1.25-.15 2 .35 1.7.5-.3.9-1.25.9-2.15 0-1.25.3-1.3 1.5-.3.85.7 1.5.9 1.5.5s1.15 0 2.5.9c2.4 1.6 2.5 1.55 2.5-.65-.05-3.3-1.6-5.25-4.2-5.25-2.05 0-2.35-.55-2.6-5.15-.25-4.55-.05-5.15 1.5-4.85 1 .2 3.7.4 6.05.4zm-3.3 31.2c.35-.55 2.3-.8 4.35-.6 2.05.2 5.05.45 6.7.55 4.35.2-.25 1.65-6.5 2l-4.5.25 5 .7c4.7.65 4.55.7-2.75.85-7.8.15-9.05-.5-6.5-3.3.8-.9 1.65-1 2.4-.4s1.4.6 1.8-.05zm-1 5.9c8.8 0 9.25 1.25 1.05 2.85l-5 .95 4.5.2c2.5.1 5.65.6 7 1.1 1.7.6.2.75-4.75.45-4.05-.25-7.1-.1-6.85.3s-.65.8-1.95.95c-1.35.1-2.45-.3-2.45-.85 0-.6-.4-.8-.9-.5-1.3.8-4.2-.5-3.55-1.55.3-.5 2-.95 3.75-1.05 2.25-.1 2.55-.25 1-.55-1.15-.25-2.75-1.15-3.5-2.05-1.15-1.4-1-1.5 1.2-.95 1.4.4 6.1.7 10.45.7zm-10 8.25c-.35.9 1.3 1.3 5.9 1.5 12.95.5 14.8 3.2 2.15 3.15-9.85-.05-21.95-1.25-18.75-1.9.7-.15 1.6-.35 2-.45 5.1-1.4 6.25-1.9 6.25-2.65 0-.5.65-.9 1.45-.9.85 0 1.25.55 1 1.25zm10.9 7.7 7.9.05-1.45 2.2c-1.6 2.4-6.45 4.2-7.35 2.7-.3-.5.25-.9 1.25-.9 8.35-.1 1.4-1.55-7.8-1.65-6.55-.05-13.55-.45-15.55-.8-6.15-1.15-1.95-2.3 7-1.95 4.5.2 11.7.35 16 .35zm-6.55 5.8c-.6.7-2.7 1.2-4.7 1.1-1.95-.1-5.7.15-8.25.55-3.05.55-4.85.4-5.3-.3-1.45-2.35.85-3 9.9-2.8 7.45.15 9.15.45 8.35 1.45zm9.3 4.25c4.8.05 7.9 1.3 6 2.45-.6.35-1.1 1.5-1.1 2.55 0 1-.55 2-1.2 2.25-.75.25-.85.85-.25 1.8.5.8.95 1.65 1 1.95.05.25.65 1.8 1.3 3.4 1 2.35.95 3.1-.05 3.75-1.8 1.15-3.05 1.05-2.3-.15 1.3-2.1-2.65-2.15-6.65-.05-4.5 2.35-7.75 5.7-7.8 8.1-.05.8-.9 2.25-1.95 3.15-1.85 1.55-3.55 12.2-3.4 20.95 0 1.85-.7 3-2.4 3.75-1.85.85-2.35.8-2.2-.15.4-2.2-1.3-8.75-2.1-8.25-1.55.95-1.85-3.85-.3-6.15 1.4-2.15 1.4-2.35-.1-2.35-2.5 0-1.9-1.7.9-2.4 3.45-.9 3.25-3.6-.25-3.65l-2.75-.05 3.25-1.4c1.8-.75 3.25-1.9 3.25-2.55 0-.65.65-.9 1.4-.6.8.3 1.65-.05 1.95-.75.35-.95-.6-1.25-3.55-1.1-2.55.15-3.5-.05-2.65-.6 1.15-.75 1.15-.85 0-.9-.85 0-.45-.8 1-1.95l2.35-2-3-.15c-1.75-.05-2.25-.35-1.25-.6 1.85-.45 2.45-2.3.8-2.3-.55 0-.75-.65-.45-1.45.45-1.15-.15-1.35-3-.85-2 .3-3.6.15-3.6-.35s1.65-1.05 3.7-1.2c2.05-.15 3.95-.45 4.2-.7.7-.7-3.2-3.4-5-3.4-.85-.05-2.55-1.15-3.8-2.45l-2.3-2.45 5.6-.7c3.1-.35 6.75-.45 8.1-.2 2.1.4 2.5.1 2.5-1.9 0-1.3.45-2.35 1-2.35s1 .8 1 1.8c0 1.4.8 1.8 3.5 1.8 3.1 0 3.5-.3 3.55-2.55 0-2.35.15-2.4 1.35-.8.9 1.2 2.7 1.75 5.7 1.75zm4.6 20.6c2.7.75 3.5 2.75 2.6 6.25-.75 2.6-.75 2.6-1.25-.85-.5-3.25-.75-3.5-3.8-3.15-2.6.25-3.15 0-2.65-1.25.65-1.7 1.65-1.9 5.1-1zm-6.55 9.3c-1.75 1.1 3.35 2.95 6.65 2.45 1.65-.25 2.1 0 1.55.9-.45.7-.65 2.35-.55 3.75.35 3.4-5 6.85-9.3 6-2.35-.45-2.6-.7-1.25-1.25 2.5-1 1.05-3.75-2.1-3.85-1.45 0-2.1-.3-1.4-.55.7-.3 1.25-1.1 1.25-1.85s.8-1.55 1.75-1.8c1.25-.35 1.1-.5-.6-.6l-2.35-.1 2.35-1.95c1.3-1.1 3.05-2 3.85-2 1.2 0 1.25.15.15.85zm7.5 16.85c-.3 4.25-3.15 5.45-3.15 1.35-.05-1.35-.65-2.65-1.45-2.9-.95-.35-1.15.05-.7 1.3.6 1.55.45 1.6-.9.45-1.4-1.15-1.35-1.45.75-2.6 4.3-2.4 5.7-1.75 5.45 2.4zm-6.35 3.95c-.3.8.25 1.3 1.45 1.3 2.25 0 4.7 2.5 5.7 5.75.8 2.7-.4 2.9-2.6.5-.85-.95-3.25-3-5.25-4.55-3.8-2.95-4.05-4.25-.8-4.25 1.2 0 1.8.5 1.5 1.25zm-6.3 9.15c0 2 .85 7.25 1.9 11.65 2.6 11.1 3.15 18.65 2.05 28-.55 4.4-1.1 9.55-1.3 11.5-.2 1.9-.45 3.95-.6 4.5-1 3.55.8 4.5 3.5 1.8 2.05-2.05 4.8-.7 5.25 2.55.35 2.4-.1 2.6-2.65 1.2-2.8-1.45-4.2.1-3.2 3.5.5 1.6.9 2.35.95 1.65.05-.75.6-1 1.2-.65.6.4 1.45.2 1.8-.4.4-.65.75.45.8 2.35.1 3.05-.2 3.5-2.3 3.5-1.5 0-2.4-.6-2.4-1.55 0-.85-.4-1.3-.9-1-.5.3-1.25-.85-1.65-2.6l-.7-3.15-2 4.65c-1.75 4.1-3.75 6.15-3.75 3.85 0-.4-1.4-1.6-3.15-2.65-3-1.75-3.05-1.9-1.25-3.25 1.6-1.2 2.05-1.15 3.1.3 1.05 1.45 1.45 1.35 3.7-1.25 3.15-3.55 3.15-3.75 0-5.2-1.9-.9-2.4-1.65-1.85-2.9 1.35-3.25 1.65-7 .55-7.7-.7-.45-1.1.55-1.1 2.85 0 2.35-.6 3.85-1.75 4.45-1.6.85-1.75.3-1.75-5.7-.05-3.65-.2-8.9-.4-11.65-.35-5.95.55-10.3 2.8-12.85 1.25-1.45 1.65-4.4 1.8-13.5.3-20.1.1-18.55 1.8-17.15.85.7 1.5 2.9 1.5 4.85zm11.5.3c4.55 3.95 4.15 4.25-2.45 1.85-6.3-2.3-6.95-2.8-5-4.05 2.35-1.5 3.7-1.1 7.45 2.2zm.4 8.1c1.6.8 2.6 2.3 2.8 4.25l.4 3-1.6-2.25c-.9-1.25-1.35-2.7-1-3.25.35-.55-.4-1.05-1.7-1.05-3.65-.15-7.05-1.8-3.8-1.85 1.4-.05 3.6.5 4.9 1.15z"/><path d="M127.95 226.25c-1.15 4.2 1.55 21.7 3.6 23.6.85.75-.2-19.8-1.15-22.2-.5-1.35-2.2-2.3-2.45-1.4z"/></svg>
